<svg fill="white" xmlns="http://www.w3.org/2000/svg" xmlns:xlink="http://www.w3.org/1999/xlink" version="1.1" x="0px" y="0px" viewBox="0 0 100 125" style="enable-background:new 0 0 100 100;" xml:space="preserve"><g><path d="M81.5,19.2C69.3,7,56.7-0.3,53.4,3.1c-1.8,1.8-0.5,6.3,3,12L30.5,40.7c-8.6-5.6-15.7-7.8-18.6-4.9   C7.7,40,14.7,54,27.7,67.9L4,95l2.7,2.7L34,74c13.5,12.4,26.8,18.9,31,14.8c2.8-2.8,0.7-9.7-4.6-18.1l26.2-26   c5.3,3.1,9.4,4.2,11.1,2.5C100.9,43.9,93.7,31.4,81.5,19.2z M61,27.2L41.1,47c-1.2,1.2-3,1.2-4.2,0c-1.2-1.2-1.2-3,0-4.2L56.8,23   c1.2-1.2,3-1.2,4.2,0C62.1,24.2,62.1,26,61,27.2z"/></g><text x="0" y="115" fill="white" font-size="5px" font-weight="bold" font-family="'Helvetica Neue', Helvetica, Arial-Unicode, Arial, Sans-serif">Created by Vaibhav Radhakrishnan</text><text x="0" y="120" fill="white" font-size="5px" font-weight="bold" font-family="'Helvetica Neue', Helvetica, Arial-Unicode, Arial, Sans-serif">from the Noun Project</text></svg>